<svg xmlns="http://www.w3.org/2000/svg" width="180" height="24" viewBox="0 0 180 24">
    <g fill="none" fill-rule="evenodd">
        <g fill="#000">
            <path d="M17.13 18.651l2.4-13.814h3.838l-2.401 13.814H17.13M34.887 5.177c-.76-.28-1.952-.58-3.44-.58-3.792 0-6.464 1.874-6.487 4.559-.021 1.985 1.908 3.092 3.363 3.753 1.494.677 1.997 1.109 1.99 1.713-.01.926-1.194 1.35-2.297 1.35-1.536 0-2.352-.21-3.612-.726l-.495-.22-.539 3.093c.897.386 2.555.72 4.275.737 4.035 0 6.654-1.852 6.684-4.72.014-1.57-1.008-2.767-3.222-3.753-1.342-.639-2.164-1.065-2.155-1.712 0-.574.695-1.188 2.198-1.188a7.197 7.197 0 0 1 2.872.529l.344.16.52-2.995M44.728 4.85h-2.965c-.92 0-1.607.246-2.01 1.146l-5.7 12.66h4.03s.66-1.702.808-2.076l4.915.006c.115.483.467 2.07.467 2.07h3.562L44.728 4.85m-4.732 8.904c.317-.796 1.529-3.861 1.529-3.861-.023.036.315-.8.509-1.319l.26 1.191.888 3.99h-3.186M13.911 4.847l-3.757 9.42-.4-1.914c-.7-2.207-2.88-4.598-5.316-5.795L7.874 18.64l4.06-.005 6.043-13.788H13.91"/>
            <path d="M6.668 4.839H.48l-.05.287c4.815 1.144 8.001 3.907 9.324 7.227L8.408 6.005c-.233-.875-.906-1.136-1.74-1.166"/>
        </g>
        <path fill="#000" d="M95.096 23.697l.615-.044.604-.076.598-.104.583-.132.575-.16.562-.188.55-.212.537-.24.522-.26.505-.287.493-.308.473-.331.456-.352.44-.372.42-.396.403-.411.379-.432.358-.448.339-.463.313-.484.294-.496.264-.511.245-.528.216-.54.191-.551.163-.564.135-.571.106-.588.077-.591.045-.604.016-.611-.016-.608-.045-.6-.077-.591-.106-.58-.135-.571-.163-.56-.191-.552-.216-.535-.245-.524-.264-.511-.294-.492-.313-.484-.339-.463-.358-.444-.379-.432-.403-.411-.42-.392-.44-.372-.456-.352-.473-.331-.493-.308-.505-.284-.522-.26-.537-.24-.55-.211-.562-.188-.575-.16-.583-.132-.598-.104-.604-.076-.615-.044-.623-.016-.62.016-.614.044-.603.076-.595.104-.583.132-.574.16-.558.188-.55.212-.534.24-.517.26-.506.283-.489.308-.472.331-.457.352-.436.372-.42.392-.398.411-.38.432-.358.444-.334.463-.314.484-.289.492-.269.511-.24.524-.216.535-.187.552-.163.56-.135.571-.106.58-.077.591-.045.6-.016.608.016.611.045.604.077.591.106.588.135.571.163.564.187.551.216.54.24.528.27.511.288.496.314.484.334.463.359.448.379.432.399.411.42.396.435.372.457.352.472.331.49.308.505.288.517.26.534.24.55.211.558.188.574.16.583.132.595.104.603.076.615.044.619.016z"/>
        <path fill="#000" d="M78.315 23.713l.62-.016.615-.044.602-.076.595-.104.583-.132.574-.16.558-.188.55-.212.534-.24.518-.26.505-.287.489-.308.472-.331.457-.352.436-.372.42-.396.398-.411.38-.432.358-.448.334-.463.314-.484.289-.496.269-.511.24-.528.216-.54.188-.551.162-.564.135-.571.106-.588.077-.591.045-.604.016-.611-.016-.608-.045-.6-.077-.591-.106-.58-.135-.571-.162-.56-.188-.552-.216-.535-.24-.524-.27-.511-.288-.492-.314-.484-.334-.463-.359-.444-.379-.432-.399-.411-.42-.392-.435-.372-.457-.352-.472-.331-.49-.308-.504-.284-.518-.26-.534-.24-.55-.211-.558-.188-.574-.16-.583-.132-.595-.104-.602-.076-.616-.044-.619-.016-.623.016-.615.044-.603.076-.6.104-.582.132-.574.16-.563.188-.55.212-.537.24-.522.26-.505.283-.493.308-.473.331-.456.352-.44.372-.42.392-.403.411-.379.432-.358.444-.338.463-.314.484-.294.492-.264.511-.245.524-.216.535-.191.552-.163.56-.135.571-.106.58-.077.591-.045.6-.016.608.016.611.045.604.077.591.106.588.135.571.163.564.191.551.216.54.245.528.264.511.294.496.314.484.338.463.358.448.379.432.403.411.42.396.44.372.456.352.473.331.493.308.505.288.522.26.537.24.55.211.563.188.574.16.583.132.599.104.603.076.615.044.623.016"/>
        <path fill="#FFF" d="M81.085 11.482l-.057-.004-.057-.008-.053-.008-.053-.008-.049-.008-.053-.008-.053-.008-.057-.008-.057-.008-.065-.004-.073-.004-.078-.004h-.085l-.094.004-.106.008-.118.008-.082.012-.077.012-.07.024-.06.024-.058.028-.052.032-.041.04-.037.036-.024.044-.02.044-.009.048v.047l.012.053.017.051.032.052.041.052.081.076.098.06.114.052.123.044.13.04.134.044.135.048.13.052.122.068.115.084.101.1.086.124.065.152.041.18.016.215-.016.252-.029.188-.048.164-.066.152-.081.132-.094.116-.106.1-.114.087-.126.076-.13.06-.135.052-.139.04-.142.032-.139.024-.134.012-.134.008-.127.004h-.175l-.163-.004H78.8l-.134-.004-.122-.004-.11-.008-.098-.008-.094-.012-.085-.008-.078-.016-.077-.012-.07-.02-.069-.016-.065-.024-.065-.024-.07-.024.184-.883.037.008.045.012.056.016.07.016.073.016.082.016.09.02.097.016.102.016.106.016.11.012.114.012.118.004.118.004h.118l.119-.004.118-.024.093-.032.074-.044.057-.056.04-.056.033-.064.02-.064.017-.06.008-.116-.037-.1-.069-.08-.102-.067-.122-.06-.143-.06-.159-.056-.158-.064-.163-.072-.155-.084-.143-.104-.13-.124-.102-.152-.073-.18-.037-.216.004-.255.02-.156.029-.148.04-.136.05-.128.065-.12.073-.104.086-.1.102-.088.118-.076.13-.064.147-.06.163-.044.183-.036.2-.027.22-.017.24-.004h.15l.14.004.126.004.114.005.102.008.093.008.082.007.073.008.07.009.056.012.053.008.05.007.04.008.037.005.036.008.033.004-.208.903"/>
        <path fill="#FFF" d="M81.085 11.482l-.057-.004-.057-.008-.053-.008-.053-.008-.049-.008-.053-.008-.053-.008-.057-.008-.057-.008-.065-.004-.073-.004-.078-.004h-.085l-.094.004-.106.008-.118.008-.082.012-.077.012-.07.024-.06.024-.058.028-.052.032-.041.04-.037.036-.024.044-.02.044-.009.048v.047l.012.053.017.051.032.052.041.052.081.076.098.06.114.052.123.044.13.04.134.044.135.048.13.052.122.068.115.084.101.1.086.124.065.152.041.18.016.215-.016.252-.029.188-.048.164-.066.152-.081.132-.094.116-.106.1-.114.087-.126.076-.13.06-.135.052-.139.04-.142.032-.139.024-.134.012-.134.008-.127.004h-.175l-.163-.004H78.8l-.134-.004-.122-.004-.11-.008-.098-.008-.094-.012-.085-.008-.078-.016-.077-.012-.07-.02-.069-.016-.065-.024-.065-.024-.07-.024.184-.883.037.008.045.012.056.016.07.016.073.016.082.016.09.02.097.016.102.016.106.016.11.012.114.012.118.004.118.004h.118l.119-.004.118-.024.093-.032.074-.044.057-.056.04-.056.033-.064.02-.064.017-.06.008-.116-.037-.1-.069-.08-.102-.067-.122-.06-.143-.06-.159-.056-.158-.064-.163-.072-.155-.084-.143-.104-.13-.124-.102-.152-.073-.18-.037-.216.004-.255.02-.156.029-.148.04-.136.05-.128.065-.12.073-.104.086-.1.102-.088.118-.076.13-.064.147-.06.163-.044.183-.036.2-.027.22-.017.24-.004h.15l.14.004.126.004.114.005.102.008.093.008.082.007.073.008.07.009.056.012.053.008.05.007.04.008.037.005.036.008.033.004-.208.903M82.05 9.591h1.13l-.168.967h.68l-.146.904-.717-.02-.391 2.23-.005.08.021.068.04.052.054.044.073.028.081.024.09.016.098.008.09-.004.081-.008.073-.012.066-.016.052-.016.037-.012.025-.008.008-.004-.143.743-.028.02-.057.032-.029.016-.029.012-.032.012-.037.012-.036.012-.041.012-.04.008-.05.008-.049.008-.053.008-.06.008-.066.008-.07.008h-.309l-.163-.012-.142-.016-.13-.024-.11-.028-.094-.036-.078-.04-.07-.048-.052-.052-.04-.055-.03-.068-.02-.068-.012-.076-.004-.084v-.088l.012-.092.012-.1.779-4.36"/>
        <path fill="#FFF" d="M82.05 9.591h1.13l-.168.967h.68l-.146.904-.717-.02-.391 2.23-.005.08.021.068.04.052.054.044.073.028.081.024.09.016.098.008.09-.004.081-.008.073-.012.066-.016.052-.016.037-.012.025-.008.008-.004-.143.743-.028.02-.057.032-.029.016-.029.012-.032.012-.037.012-.036.012-.041.012-.04.008-.05.008-.049.008-.053.008-.06.008-.066.008-.07.008h-.309l-.163-.012-.142-.016-.13-.024-.11-.028-.094-.036-.078-.04-.07-.048-.052-.052-.04-.055-.03-.068-.02-.068-.012-.076-.004-.084v-.088l.012-.092.012-.1.779-4.36"/>
        <path fill="#FFF" d="M84.593 12.969l-.012.068-.004.072.008.075.016.076.029.076.032.072.045.076.049.068.057.068.06.06.066.06.073.048.074.044.081.036.082.028.081.016.106.016.102.012.106.012.106.008.106.004h.11l.106-.004.11-.008.11-.016.11-.02.114-.024.11-.036.114-.044.118-.048.114-.064.118-.068-.163.983-.13.064-.065.024-.061.024-.061.02-.066.02-.065.016-.07.012-.072.012-.082.008-.085.008-.094.008-.106.004h-.11l-.126.004h-.135l-.2-.004-.203-.02-.204-.028-.204-.048-.2-.06-.19-.075-.184-.1-.171-.116-.159-.136-.138-.164-.119-.184-.097-.212-.07-.236-.045-.267-.012-.296.02-.328.017-.128.024-.148.033-.156.045-.168.06-.171.074-.172.094-.176.114-.168.13-.16.16-.152.179-.136.203-.12.236-.1.265-.071.294-.048.33-.017.158.004.168.017.167.027.167.04.163.06.158.072.147.096.135.112.122.136.102.16.081.184.057.212.033.24.004.271-.029.304-.06.336-.021.244h-2.97l.187-.788h1.785l.008-.1-.004-.096-.008-.088-.017-.08-.028-.075-.029-.068-.04-.06-.041-.056-.049-.048-.053-.04-.061-.036-.061-.032-.065-.024-.066-.016-.069-.012-.073-.008-.078.004-.073.012-.07.016-.069.024-.069.032-.06.036-.062.044-.053.048-.053.056-.049.06-.045.064-.036.068-.037.072-.029.08-.024.08-.016.083-.163.828"/>
        <path fill="#FFF" d="M84.58 13.037l-.003.072.008.075.016.076.029.076.032.072.045.076.049.068.057.068.06.06.066.06.073.048.074.044.081.036.082.028.081.016.106.016.102.012.106.012.106.008.106.004h.11l.106-.004.11-.008.11-.016.11-.02.114-.024.11-.036.114-.044.118-.048.114-.064.118-.068-.163.983-.13.064-.065.024-.061.024-.061.02-.066.02-.065.016-.07.012-.072.012-.082.008-.085.008-.094.008-.106.004h-.11l-.126.004h-.135l-.2-.004-.203-.02-.204-.028-.204-.048-.2-.06-.19-.075-.184-.1-.171-.116-.159-.136-.138-.164-.119-.184-.097-.212-.07-.236-.045-.267-.012-.296.02-.328.017-.128.024-.148.033-.156.045-.168.06-.171.074-.172.094-.176.114-.168.13-.16.16-.152.179-.136.203-.12.236-.1.265-.071.294-.048.33-.017.158.004.168.017.167.027.167.04.163.06.158.072.147.096.135.112.122.136.102.16.081.184.057.212.033.24.004.271-.029.304-.06.336-.021.244h-2.97l.187-.788h1.785l.008-.1-.004-.096-.008-.088-.017-.08-.028-.075-.029-.068-.04-.06-.041-.056-.049-.048-.053-.04-.061-.036-.061-.032-.065-.024-.066-.016-.069-.012-.073-.008-.078.004-.073.012-.07.016-.069.024-.069.032-.06.036-.062.044-.053.048-.053.056-.049.06-.045.064-.036.068-.037.072-.029.08-.024.08-.016.083-.01.046-.153.782-.012.068zM94.31 10.798l-.053-.028-.053-.024-.057-.028-.061-.028-.061-.024-.07-.024-.07-.024-.072-.024-.078-.02-.077-.016-.086-.015-.085-.012-.094-.009-.094-.008h-.301l-.106.008-.11.013-.114.02-.114.031-.114.044-.114.057-.115.071-.11.088-.106.104-.101.128-.098.148-.09.176-.085.2-.078.224-.065.255-.024.144-.017.14-.008.14.004.136.013.136.028.128.037.12.045.12.06.107.074.104.085.092.098.084.11.072.127.06.138.052.155.036.053.012.061.012.073.008.082.008.09.008h.195l.102-.008.106-.012.106-.02.102-.028.101-.032.102-.044.094-.052.086-.064.081-.072-.183 1.068-.025.02-.024.023-.033.029-.036.023-.045.032-.057.028-.065.028-.074.024-.093.028-.107.02-.122.016-.142.016-.16.008-.183.004-.207-.004-.228-.012-.188-.02-.187-.04-.188-.06-.187-.08-.18-.095-.17-.12-.163-.14-.151-.16-.135-.18-.114-.2-.097-.224-.074-.244-.049-.267-.016-.284.008-.312.045-.332.033-.163.036-.16.041-.156.04-.148.046-.14.052-.14.054-.132.056-.124.062-.124.06-.116.07-.111.073-.105.074-.1.081-.095.082-.088.085-.084.094-.08.093-.076.098-.068.102-.064.11-.06.11-.052.114-.048.118-.044.127-.04.126-.032.13-.028.139-.024.138-.02.147-.016.147-.008.155-.004.13.004.126.008.123.012.122.016.114.016.11.024.106.02.098.024.093.024.082.024.077.024.065.024.057.02.05.016.036.016.024.008-.203 1.107"/>
        <path fill="#FFF" d="M94.31 10.798l-.053-.028-.053-.024-.057-.028-.061-.028-.061-.024-.07-.024-.07-.024-.072-.024-.078-.02-.077-.016-.086-.015-.085-.012-.094-.009-.094-.008h-.301l-.106.008-.11.013-.114.02-.114.031-.114.044-.114.057-.115.071-.11.088-.106.104-.101.128-.098.148-.09.176-.085.2-.078.224-.065.255-.024.144-.017.14-.008.14.004.136.013.136.028.128.037.12.045.12.06.107.074.104.085.092.098.084.11.072.127.06.138.052.155.036.053.012.061.012.073.008.082.008.09.008h.195l.102-.008.106-.012.106-.02.102-.028.101-.032.102-.044.094-.052.086-.064.081-.072-.183 1.068-.025.02-.024.023-.033.029-.036.023-.045.032-.057.028-.065.028-.074.024-.093.028-.107.02-.122.016-.142.016-.16.008-.183.004-.207-.004-.228-.012-.188-.02-.187-.04-.188-.06-.187-.08-.18-.095-.17-.12-.163-.14-.151-.16-.135-.18-.114-.2-.097-.224-.074-.244-.049-.267-.016-.284.008-.312.045-.332.033-.163.036-.16.041-.156.04-.148.046-.14.052-.14.054-.132.056-.124.062-.124.06-.116.07-.111.073-.105.074-.1.081-.095.082-.088.085-.084.094-.08.093-.076.098-.068.102-.064.11-.06.11-.052.114-.048.118-.044.127-.04.126-.032.13-.028.139-.024.138-.02.147-.016.147-.008.155-.004.13.004.126.008.123.012.122.016.114.016.11.024.106.02.098.024.093.024.082.024.077.024.065.024.057.02.05.016.036.016.024.008-.203 1.107M104.34 14.84h-1.128l.081-.444v-.04l-.065.08-.07.072-.069.064-.073.055-.073.052-.074.044-.073.036-.077.036-.078.028-.077.02-.078.02-.081.012-.082.012-.077.008-.081.004h-.082l-.212-.016-.195-.044-.18-.068-.163-.092-.146-.115-.13-.136-.115-.148-.097-.168-.082-.18-.065-.188-.045-.196-.033-.204-.012-.203.004-.208.02-.204.037-.204.061-.236.074-.224.085-.203.102-.192.106-.18.122-.16.127-.144.134-.132.143-.116.15-.1.155-.088.155-.068.163-.056.163-.036.163-.023.167-.009.118.004.114.013.106.02.098.027.094.032.081.036.082.044.073.044.065.048.061.052.053.052.049.052.04.052.037.052.033.048.025.048.285-1.57h1.108l-.921 5.227"/>
        <path fill="#FFF" d="M104.34 14.84h-1.128l.081-.444v-.04l-.065.08-.07.072-.069.064-.073.055-.073.052-.074.044-.073.036-.077.036-.078.028-.077.02-.078.02-.081.012-.082.012-.077.008-.081.004h-.082l-.212-.016-.195-.044-.18-.068-.163-.092-.146-.115-.13-.136-.115-.148-.097-.168-.082-.18-.065-.188-.045-.196-.033-.204-.012-.203.004-.208.02-.204.037-.204.061-.236.074-.224.085-.203.102-.192.106-.18.122-.16.127-.144.134-.132.143-.116.15-.1.155-.088.155-.068.163-.056.163-.036.163-.023.167-.009.118.004.114.013.106.02.098.027.094.032.081.036.082.044.073.044.065.048.061.052.053.052.049.052.04.052.037.052.033.048.025.048.285-1.57h1.108l-.921 5.227"/>
        <path fill="#000" d="M102.495 13.872l.114-.008.106-.024.097-.028.094-.044.086-.048.081-.06.078-.068.069-.072.06-.08.058-.088.053-.092.045-.095.04-.1.033-.104.029-.108.02-.108.02-.112.012-.116v-.108l-.004-.112-.012-.104-.016-.1-.029-.096-.032-.091-.041-.08-.049-.076-.053-.064-.06-.056-.07-.048-.073-.032-.078-.02-.086-.008-.11.008-.101.016-.094.032-.094.04-.081.052-.082.064-.069.068-.07.075-.06.088-.057.092-.053.096-.045.104-.04.108-.033.108-.033.116-.024.116-.02.176.007.192.029.196.053.187.081.164.106.132.135.088.163.032M77.475 13.952l-.163.887h-1.026l.028-.164.02-.147.017-.112.016-.06-.057.064-.065.064-.077.06-.086.055-.098.056-.102.048-.106.048-.11.04-.118.036-.118.028-.118.024-.122.016-.118.008-.119.004-.114-.012-.11-.016-.142-.036-.13-.04-.115-.052-.102-.06-.09-.064-.08-.072-.066-.076-.057-.08-.049-.083-.04-.088-.033-.088-.025-.088-.016-.092-.012-.092-.008-.088v-.088l.012-.156.024-.148.041-.14.053-.135.065-.128.074-.116.085-.112.098-.1.102-.092.114-.084.118-.076.122-.064.13-.056.135-.044.139-.036.142-.024h.009l.02-.004.028-.004.045-.004.05-.008.056-.004.061-.008.07-.008.069-.008.069-.008.073-.004.066-.008.065-.004.06-.004.058-.004h.138l.098.004.09.004h.09l.073.004.057.004.04.004h.013l.008-.028.024-.072.02-.083.009-.076-.016-.088-.037-.08-.049-.072-.065-.06-.078-.052-.085-.036-.098-.024-.106-.008-.114-.004-.122-.004h-.127l-.13.004-.134.008-.13.012-.131.012-.126.016-.123.016-.118.02-.106.02-.097.02-.09.024-.073.024-.057.028-.045.024.289-.964.09-.036.09-.032.097-.028.196-.04.106-.015.105-.016.11-.009.115-.008.118-.004.122-.004h.391l.143.004.142.004.114.008.123.02.126.029.13.036.127.047.122.056.122.068.114.076.102.088.09.096.081.108.061.12.04.128.025.136v.152l-.024.16-.412 2.11"/>
        <path fill="#FFF" d="M77.475 13.952l-.163.887h-1.026l.028-.164.02-.147.017-.112.016-.06-.057.064-.065.064-.077.06-.086.055-.098.056-.102.048-.106.048-.11.04-.118.036-.118.028-.118.024-.122.016-.118.008-.119.004-.114-.012-.11-.016-.142-.036-.13-.04-.115-.052-.102-.06-.09-.064-.08-.072-.066-.076-.057-.08-.049-.083-.04-.088-.033-.088-.025-.088-.016-.092-.012-.092-.008-.088v-.088l.012-.156.024-.148.041-.14.053-.135.065-.128.074-.116.085-.112.098-.1.102-.092.114-.084.118-.076.122-.064.13-.056.135-.044.139-.036.142-.024h.009l.02-.004.028-.004.045-.004.05-.008.056-.004.061-.008.07-.008.069-.008.069-.008.073-.004.066-.008.065-.004.06-.004.058-.004h.138l.098.004.09.004h.09l.073.004.057.004.04.004h.013l.008-.028.024-.072.02-.083.009-.076-.016-.088-.037-.08-.049-.072-.065-.06-.078-.052-.085-.036-.098-.024-.106-.008-.114-.004-.122-.004h-.127l-.13.004-.134.008-.13.012-.131.012-.126.016-.123.016-.118.02-.106.02-.097.02-.09.024-.073.024-.057.028-.045.024.289-.964.09-.036.09-.032.097-.028.196-.04.106-.015.105-.016.11-.009.115-.008.118-.004.122-.004h.391l.143.004.142.004.114.008.123.02.126.029.13.036.127.047.122.056.122.068.114.076.102.088.09.096.081.108.061.12.04.128.025.136v.152l-.024.16-.412 2.11"/>
        <path fill="#000" d="M76.493 12.909l-.004-.02-.016-.02-.024-.012-.041-.008-.045-.008-.053-.004h-.122l-.065.004-.07.008-.065.008-.065.008-.061.008-.057.012-.049.012-.045.012-.028.008-.033.012-.045.016-.045.02-.052.024-.053.028-.057.028-.053.032-.057.04-.053.04-.05.048-.044.047-.04.052-.03.056-.024.064-.012.064-.004.136.02.108.04.08.054.06.061.04.07.024.064.012.066.004.122-.004.11-.012.106-.016.093-.024.082-.028.077-.036.07-.036.06-.044.054-.04.049-.048.04-.044.033-.048.029-.048.024-.048.02-.044.013-.044.032-.115.029-.132.024-.128.02-.104"/>
        <path fill="#FFF" d="M68.903 14.84h-1.108l.925-5.249h1.927l.183 3.114 1.333-3.114h2.012l-.945 5.248h-1.108l.7-3.92h-.044l-1.658 3.92h-1.251l-.008-.164-.029-.435-.036-.62-.082-1.427-.036-.627-.03-.456-.007-.192h-.061l-.677 3.921"/>
        <path fill="#FFF" d="M68.903 14.84h-1.108l.925-5.249h1.927l.183 3.114 1.333-3.114h2.012l-.945 5.248h-1.108l.7-3.92h-.044l-1.658 3.92h-1.251l-.008-.164-.029-.435-.036-.62-.082-1.427-.036-.627-.03-.456-.007-.192h-.061l-.677 3.921M97.695 13.952l-.167.887h-1.022l.008-.164.004-.143v-.108l.008-.048-.053.06-.061.06-.073.055-.082.057-.085.051-.098.048-.102.048-.102.04-.11.032-.114.032-.114.02-.114.016-.118.008-.114.004-.11-.012-.11-.016-.147-.036-.13-.04-.115-.052-.106-.06-.089-.064-.077-.072-.066-.076-.057-.08-.049-.083-.036-.088-.033-.088-.02-.088-.016-.092-.013-.092-.008-.088v-.088l.008-.156.025-.148.036-.14.053-.135.061-.128.078-.116.085-.112.094-.1.106-.092.11-.084.118-.076.126-.064.127-.056.134-.044.135-.036.138-.024h.008l.02-.004.03-.004.04-.004.053-.008.057-.004.061-.008.065-.008.07-.008.073-.008.07-.004.068-.008.066-.004.057-.004.057-.004h.142l.098.004.094.004h.09l.077.004.065.004.037.004h.016l.008-.028.012-.072.013-.083.008-.076-.017-.088-.032-.08-.053-.072-.061-.06-.074-.052-.085-.036-.09-.024-.098-.008-.114-.004-.122-.004h-.126l-.13.004-.135.008-.13.012-.13.012-.127.016-.122.016-.118.02-.106.02-.098.02-.09.024-.073.024-.057.028-.045.024.285-.964.09-.036.094-.032.093-.028.098-.02.102-.02.102-.015.106-.016.11-.009.114-.008.118-.004.118-.004h.383l.138.004.139.004.114.008.122.02.127.029.13.036.126.047.127.056.122.068.114.076.102.088.093.096.082.108.061.12.045.128.028.136v.152l-.02.16-.428 2.11"/>
        <path fill="#FFFFFE" d="M97.528 14.867l.024-.024.167-.887-.049-.008-.166.887.024-.024v.056l.02-.004.004-.02-.024.024"/>
        <path fill="#FFFFFE" d="M96.481 14.84l.025.027h1.022v-.056h-1.022l.024.028h-.049l-.004.028h.029l-.025-.028"/>
        <path fill="#FFFFFE" d="M96.546 14.392l-.036-.032-.017.064-.004.108v.143l-.008.164h.049l.008-.164.008-.143-.004-.108v-.032l-.036-.032.04.032"/>
        <path fill="#FFFFFE" d="M94.961 14.903l.115.016.11.012.114-.004.118-.008.118-.016.114-.02.114-.032.114-.032.102-.04.106-.048.098-.047.085-.057.086-.055.073-.057.065-.063.053-.06-.04-.032-.053.06-.057.055-.074.057-.077.055-.086.048-.195.096-.102.04-.106.032-.114.032-.114.02-.11.016-.118.008-.114.004-.11-.012-.106-.016-.009.048"/>
        <path fill="#FFFFFE" d="M93.976 13.692l.004.088.008.088.012.096.016.092.02.088.033.092.037.092.053.084.057.084.065.076.082.076.093.063.106.064.118.052.135.04.146.036.009-.048-.147-.036-.126-.04-.11-.052-.106-.056-.086-.063-.073-.068-.065-.076-.057-.076-.045-.084-.037-.084-.032-.084-.02-.088-.017-.092-.012-.088-.008-.088.004-.088h-.057M95.438 12.157l-.142.024-.139.036-.134.044-.13.056-.127.064-.122.08-.11.084-.106.096-.098.1-.086.112-.081.12-.061.131-.053.137-.037.143-.024.152-.012.156h.057l.004-.156.024-.144.037-.136.053-.135.06-.124.074-.112.086-.112.09-.1.105-.088.11-.084.114-.072.127-.064.122-.056.134-.044.13-.036.135-.024v-.048"/>
        <path fill="#FFFFFE" d="M96.278 12.073h-.045l-.057.008-.057.004-.066.004-.069.008-.07.004-.072.008-.07.008-.065.008-.06.008-.058.004-.053.008-.04.004-.033.004-.017.004h-.008v.048h.008l.025-.004.024-.004.04-.004.054-.008.057-.004.061-.008.065-.008.07-.008.073-.008.07-.004.068-.008.066-.004.057-.004h.102v-.056"/>
        <path fill="#FFFFFE" d="M96.827 12.117l.025-.02h-.016l-.037-.004-.065-.004-.078-.008h-.183l-.098-.008h-.097v.056h.195l.094.008h.167l.065.004.037.004h.016l.024-.02-.024.02.02.004.004-.024-.049-.008"/>
        <path fill="#FFFFFE" d="M96.868 11.862h-.004l-.004.075-.012.08-.012.072-.009.028.05.008.007-.028.012-.072.013-.088.012-.075h-.053M96.383 11.466v.004l.094.004.086.024.081.035.07.048.056.056.05.068.032.072.016.084h.05l-.017-.092-.033-.088-.057-.076-.065-.064-.077-.055-.09-.036-.094-.024-.102-.012v.052M94.635 11.657l.041.024.041-.02.053-.028.07-.024.089-.024.098-.02.106-.02.118-.02.118-.016.126-.016.13-.011.13-.012.135-.008h.38l.113.004v-.048l-.114-.004-.122-.008h-.126l-.13.008-.135.008-.13.012-.13.012-.127.016-.126.016-.119.02-.105.02-.098.02-.09.023-.077.024-.061.028-.05.028.041.024-.049-.008"/>
        <path fill="#FFFFFE" d="M94.936 10.674l-.016.02-.285.964.05.008.284-.964-.017.02-.016-.048-.012.004-.004.016.016-.02"/>
        <path fill="#FFFFFE" d="M96.75 10.49l-.139-.008-.138-.004h-.383l-.118.008-.118.004-.114.009-.11.007-.11.016-.102.016-.102.02-.098.02-.098.028-.093.032-.09.036.016.048.09-.036.094-.032.09-.028.097-.02.102-.02.102-.016.102-.016.11-.008.114-.008.118-.004h.501l.138.004h.139v-.048"/>
        <path fill="#FFFFFE" d="M98.147 11.845l.02-.163v-.152l-.028-.14-.044-.132-.066-.124-.081-.112-.098-.1-.102-.088-.118-.076-.122-.071-.13-.057-.127-.048-.134-.035-.127-.029-.126-.02-.114-.007v.048l.114.008.118.02.126.027.127.036.126.048.122.056.123.064.11.076.102.088.09.092.08.104.058.116.044.124.029.132v.152l-.02.156.048.007M97.72 13.956l.427-2.11-.048-.008-.428 2.11.049.008"/>
        <path fill="#000" d="M96.71 12.909l-.009-.024-.016-.02-.029-.012-.04-.012-.045-.004-.053-.004h-.061l-.061.004-.065.008-.066.008-.065.008-.061.008-.061.012-.053.008-.053.012-.04.008-.03.004-.032.012-.04.012-.046.016-.052.024-.05.024-.056.028-.106.072-.053.043-.045.045-.045.052-.037.055-.028.06-.025.064-.012.068-.004.136.02.108.033.08.049.06.061.04.07.024.069.012.069.004.122-.004.114-.012.106-.02.094-.028.09-.032.077-.036.073-.04.065-.048.057-.044.05-.052.044-.048.037-.052.028-.048.02-.048.017-.048.012-.043.017-.112.02-.116.016-.112.008-.1"/>
        <path fill="#FFF" d="M98 14.84h1.15l.411-2.275.016-.088.05-.176.032-.088.04-.088.05-.084.053-.08.065-.076.073-.067.082-.064.093-.06.106-.048.118-.04.13-.032.143-.024.16-.008h.101l.183-1.028-.114.008-.11.013-.102.02-.097.027-.09.032-.085.04-.082.044-.077.048-.074.056-.07.056-.13.128-.06.068-.061.076-.062.072-.057.08.123-.724h-1.145L98 14.84"/>
        <path fill="#FFF" d="M98 14.84h1.15l.411-2.275.016-.088.05-.176.032-.088.04-.088.05-.084.053-.08.065-.076.073-.067.082-.064.093-.06.106-.048.118-.04.13-.032.143-.024.16-.008h.101l.183-1.028-.114.008-.11.013-.102.02-.097.027-.09.032-.085.04-.082.044-.077.048-.074.056-.07.056-.13.128-.06.068-.061.076-.062.072-.057.08.123-.724h-1.145L98 14.84M87.213 14.84h1.169l.39-2.275.017-.088.02-.084.021-.084.028-.08.033-.08.04-.076.05-.072.057-.068.065-.06.073-.06.09-.047.098-.044.114-.036.126-.032.139-.02.158-.012h.013l.016.004.02.004h.02l.021.004.016.004.012.004h.005l.004-.016.012-.048.016-.072.02-.088.03-.104.028-.112.036-.112.037-.112.033-.076.081-.152.04-.068.038-.06.028-.047.02-.028.008-.012h-.004l-.016-.004-.02-.004-.029-.005h-.028l-.033-.004-.028-.004h-.029l-.126.008-.114.013-.106.02-.098.024-.094.032-.085.04-.078.04-.073.047-.07.052-.064.06-.061.06-.062.068-.06.068-.058.076-.122.16.147-.724h-1.17l-.761 4.281"/>
        <path fill="#FFF" d="M87.213 14.84h1.169l.39-2.275.017-.088.02-.084.021-.084.028-.08.033-.08.04-.076.05-.072.057-.068.065-.06.073-.06.09-.047.098-.044.114-.036.126-.032.139-.02.158-.012h.013l.016.004.02.004h.02l.021.004.016.004.012.004h.005l.004-.016.012-.048.016-.072.02-.088.03-.104.028-.112.036-.112.037-.112.033-.076.081-.152.04-.068.038-.06.028-.047.02-.028.008-.012h-.004l-.016-.004-.02-.004-.029-.005h-.028l-.033-.004-.028-.004h-.029l-.126.008-.114.013-.106.02-.098.024-.094.032-.085.04-.078.04-.073.047-.07.052-.064.06-.061.06-.062.068-.06.068-.058.076-.122.16.147-.724h-1.17l-.761 4.281M84.1 12.233h1v1h-1z"/>
        <g>
            <path fill="#000" d="M163.155 15l.537.112c0 .111-.107.222-.215.333-.107.112-.215.223-.322.223-.108 0-.215.111-.43.111s-.43 0-.537-.111l-.323-.334c-.107-.111-.107-.333-.107-.556 0-.333.107-.556.215-.778.215-.223.43-.223.752-.223.215 0 .43 0 .537.112.108.11.215.222.323.444l-.43.223c0-.111 0-.111-.108-.111l-.107-.112h-.215c-.107 0-.215.112-.322.223-.108.111-.108.222-.108.445 0 .222 0 .333.108.444.107.112.107.112.322.112.107 0 .215 0 .215-.112.107-.222.215-.333.215-.444zM164.445 14.778c0 .223 0 .334.107.445.108.111.215.111.322.111.108 0 .215 0 .323-.111.107-.111.107-.222.107-.445 0-.222 0-.333-.107-.445-.108-.11-.215-.11-.323-.11-.107 0-.214 0-.322.11 0 .112-.107.223-.107.445zm-.538 0c0-.333.108-.556.215-.778.215-.223.43-.223.752-.223.323 0 .538.112.753.223.215.222.215.445.215.778 0 .223 0 .445-.108.556l-.322.334c-.108.111-.323.111-.538.111-.214 0-.43 0-.537-.111l-.322-.334c-.108-.111-.108-.333-.108-.556zM166.164 13.777h.86l.215 1.224.322-1.224h.753v2.002h-.43v-1.446l-.43 1.446h-.43l-.323-1.446v1.446h-.537zM169.388 14.667h.108c.107 0 .215 0 .215-.111l.107-.111c0-.112 0-.112-.107-.112 0 0-.108-.11-.215-.11h-.215v.444h.107zm-.645-.89h.968c.215 0 .43 0 .537.112.107.11.107.222.107.444 0 .223-.107.334-.214.445a.807.807 0 0 1-.538.223h-.322v.778h-.645v-2.002h.107zM170.678 13.777h.645v1.557h.86v.445h-1.505zM172.505 13.777h.645v2.002h-.645zM174.547 15l-.215-.667-.215.668h.43zm.215.445h-.645l-.107.334h-.645l.752-2.002h.645l.752 2.002h-.645l-.107-.334zM175.622 13.777h.537l.752 1.112v-1.112h.538v2.002h-.538l-.752-1.112v1.112h-.537zM177.771 13.777h1.72v.556h-.538v1.446h-.645v-1.446h-.537zM155.417 10.997l-3.332-7.784L127.26 4.66l6.878 19.349 13.219-4.337c-.86-1.223-1.183-2.78-.215-3.447 1.074-.779 2.686.111 3.761 1.445.967-1.779 3.87-5.782 4.514-6.672zm.537 5.894l1.72-.556-.537-1.334c-.43.556-.86 1.223-1.183 1.89z"/>
            <path fill="#FFF" d="M149.721 9.552h3.117v8.34h-3.117v-8.34zm1.505-.779c1.074 0 1.827-.778 1.827-1.779 0-1-.86-1.78-1.827-1.78-1.075 0-1.827.78-1.827 1.78s.86 1.78 1.827 1.78zM148.216 11.998V9.775s-.43-.223-1.612-.334h-1.397c-4.514.333-4.621 3.67-4.621 3.892v.778c0 .111 0 3.558 4.621 3.78h1.397c1.075 0 1.827-.333 1.827-.333v-2.113s-.322.223-1.827.445h-.752c-2.042-.333-2.15-1.89-2.15-1.89v-.779s.108-1.668 2.15-1.89h.752c.86.222 1.612.667 1.612.667zM134.997 13.555v-2.224h.753s1.074 0 1.182.778v.445c-.108.89-1.075.89-1.075.89l-.86.111zm-3.009 4.337h3.01v-2.447s4.728.334 4.728-3.002c0-2.669-3.009-2.891-3.976-2.891h-3.87l.108 8.34z"/>
            <path fill="#000" d="M151.333 21.895c.215 0 .43 0 .752-.111 1.075-.556 4.73-9.897 8.598-12.677 0 0 .108 0 .108-.111v-.111s0-.223-.538-.223c-3.439-.111-6.985 7.34-8.92 10.342h-.107s-1.29-1.557-2.365-2.113h-.322c-.108 0-.645.111-.86.334-.322.333-.322.444-.322.89 0 0 0 .11.107.222.215.444 1.505 2.224 2.472 3.224.215 0 .43.334 1.397.334zM163.692 7.661v3.559h.43c.43 0 .645 0 .86-.111a.854.854 0 0 0 .43-.445c.107-.223.107-.556.107-1.112 0-.667-.107-1.112-.322-1.446-.215-.222-.537-.333-1.075-.333h-.43V7.66zm-1.934-1.445h2.902c.537 0 1.074.11 1.397.222.322.111.644.334.86.667.214.334.43.668.537 1.001.107.445.107.779.107 1.223 0 .668-.107 1.224-.215 1.557-.107.334-.322.667-.645 1.001-.322.222-.537.445-.86.556-.43.111-.86.222-1.181.222h-2.902v-6.45zM167.991 10.553l1.827-.112c0 .334.108.556.215.668.215.222.43.444.86.444.322 0 .537-.11.645-.222.107-.111.215-.334.215-.445 0-.222-.108-.333-.215-.445-.108-.11-.43-.222-.968-.333-.86-.223-1.397-.445-1.827-.779-.322-.333-.537-.778-.537-1.223 0-.333.108-.667.322-.89.215-.333.43-.555.86-.667.323-.222.86-.222 1.505-.222.752 0 1.397.111 1.827.445.43.333.645.778.752 1.445l-1.827.112c0-.334-.107-.556-.322-.668-.108-.11-.323-.222-.645-.222-.215 0-.43 0-.537.111-.108.111-.215.223-.215.334 0 .11 0 .222.107.222.108.111.322.111.645.223.86.222 1.397.333 1.827.556.322.222.645.444.752.667.215.333.215.556.215 1 0 .445-.107.779-.322 1.113-.215.333-.538.667-.968.778-.43.222-.86.222-1.504.222-1.075 0-1.827-.222-2.257-.667a5.737 5.737 0 0 1-.43-1.445zM174.117 10.553l1.827-.112c0 .334.107.556.215.668.215.222.43.444.86.444.322 0 .537-.11.645-.222.107-.111.214-.334.214-.445 0-.222-.107-.333-.214-.445-.108-.11-.43-.222-.968-.333-.86-.223-1.397-.445-1.827-.779-.322-.333-.537-.778-.537-1.223 0-.333.107-.667.322-.89.215-.333.43-.555.86-.667.323-.222.86-.222 1.505-.222.752 0 1.397.111 1.827.445.43.333.645.778.752 1.445l-1.827-.11c0-.334-.107-.557-.322-.668-.108-.111-.323-.222-.645-.222-.215 0-.43 0-.538.11-.107.112-.215.223-.215.334 0 .112 0 .223.108.223.107.11.322.11.645.222.86.223 1.397.334 1.827.556.322.223.645.445.752.667.215.334.215.556.215 1.001 0 .445-.107.779-.322 1.112-.215.334-.538.667-.968.779-.43.222-.86.222-1.504.222-1.075 0-1.827-.222-2.257-.667-.108 0-.323-.556-.43-1.223z"/>
        </g>
    </g>
</svg>
