<svg xmlns="http://www.w3.org/2000/svg" width="28" height="27" viewBox="0 0 28 27">
    <g fill="none" fill-rule="evenodd">
        <path d="M-20-18h66v60h-66z"/>
        <g stroke="#6BBFFF">
            <path d="M14.251 26.229s-12.388.063-13.076-.937c-.567-.826.995-3.203 1.377-3.416.677-.377 5.036-.96 8.459-3.626.34-.408.853-1.426.373-2.869-.935-1.189-3.232-2.983-3.231-7.359 0-3.621 2.236-7.398 6.098-7.398"/>
            <path d="M14.237 26.229s12.388.063 13.076-.937c.567-.826-.996-3.203-1.378-3.416-.676-.377-5.036-.96-8.458-3.626-.34-.408-.854-1.426-.373-2.869.935-1.189 3.232-2.983 3.231-7.359 0-3.621-2.236-7.398-6.098-7.398"/>
        </g>
    </g>
</svg>
