<svg xmlns="http://www.w3.org/2000/svg" xmlns:xlink="http://www.w3.org/1999/xlink" width="310" height="199" viewBox="0 0 310 199">
    <defs>
        <rect id="a" width="281" height="146" x="65" rx="5.462"/>
        <path id="b" d="M23 76.922A5.923 5.923 0 0 1 28.917 71h195.166A5.92 5.92 0 0 1 230 76.922V190H23V76.922z"/>
        <rect id="c" width="74" height="105" x="291" y="64" rx="5.462"/>
        <rect id="d" width="45" height="80" x="263.1" y="101" rx="4.096"/>
        <path id="e" d="M.78 190.834C.34 189.821.876 189 1.984 189h249.001c1.104 0 1.682.835 1.204 1.834 0 0-2.204 8.166-14.204 8.166h-223c-12 0-14.205-8.166-14.205-8.166z"/>
        <filter id="f" width="182.5%" height="138.5%" x="-21.9%" y="-11.1%" filterUnits="objectBoundingBox">
            <feOffset dx="11" dy="10" in="SourceAlpha" result="shadowOffsetOuter1"/>
            <feGaussianBlur in="shadowOffsetOuter1" result="shadowBlurOuter1" stdDeviation="6"/>
            <feColorMatrix in="shadowBlurOuter1" result="shadowMatrixOuter1" values="0 0 0 0 0 0 0 0 0 0 0 0 0 0 0 0 0 0 0.072435462 0"/>
            <feMerge>
                <feMergeNode in="shadowMatrixOuter1"/>
                <feMergeNode in="SourceGraphic"/>
            </feMerge>
        </filter>
        <rect id="g" width="57" height="122" rx="3.687"/>
        <rect id="h" width="11" height="4" x="6" y="90" rx="2"/>
        <rect id="i" width="11" height="4" x="23" y="90" rx="2"/>
        <rect id="j" width="11" height="4" x="40" y="90" rx="2"/>
        <rect id="k" width="11" height="4" x="6" y="99" rx="2"/>
        <rect id="l" width="11" height="4" x="23" y="99" rx="2"/>
        <rect id="m" width="11" height="4" x="40" y="99" rx="2"/>
        <rect id="n" width="11" height="4" x="6" y="108" rx="2"/>
        <rect id="o" width="11" height="4" x="23" y="108" rx="2"/>
        <rect id="p" width="11" height="4" x="40" y="108" rx="2"/>
        <rect id="q" width="12" height="5" x="6" y="74" rx="2.458"/>
        <rect id="r" width="12" height="5" x="39" y="74" rx="2.458"/>
        <ellipse id="s" cx="28.5" cy="75.502" rx="5.5" ry="5.502"/>
    </defs>
    <g fill="none" fill-rule="evenodd">
        <g transform="matrix(-1 0 0 1 356 0)">
            <use fill="#FFF" xlink:href="#a"/>
            <rect width="280" height="145" x="65.5" y=".5" stroke="#C6C6C6" rx="5.462"/>
        </g>
        <g transform="matrix(-1 0 0 1 198 0)">
            <use fill="#FFF" xlink:href="#b"/>
            <path stroke="#C6C6C6" d="M23.5 189.5h206V76.922a5.42 5.42 0 0 0-5.417-5.422H28.917a5.423 5.423 0 0 0-5.417 5.422V189.5z"/>
        </g>
        <g transform="matrix(-1 0 0 1 601 0)">
            <use fill="#FFF" xlink:href="#c"/>
            <rect width="73" height="104" x="291.5" y="64.5" stroke="#C6C6C6" rx="5.462"/>
        </g>
        <g transform="matrix(-1 0 0 1 516.2 0)">
            <use fill="#FFF" xlink:href="#d"/>
            <rect width="44" height="79" x="263.6" y="101.5" stroke="#C6C6C6" rx="4.096"/>
        </g>
        <g transform="matrix(-1 0 0 1 197.985 0)">
            <use fill="#FFF" xlink:href="#e"/>
            <path stroke="#C6C6C6" d="M1.239 190.635l.024.069c.013.049.047.153.104.305.098.262.226.555.39.872.47.913 1.12 1.827 1.978 2.682 2.47 2.457 6.13 3.937 11.25 3.937h223c5.119 0 8.78-1.48 11.25-3.937a10.707 10.707 0 0 0 1.978-2.682c.163-.317.292-.61.39-.871.057-.153.09-.257.135-.392.312-.651 0-1.118-.753-1.118h-249c-.748 0-1.043.45-.746 1.135z"/>
        </g>
        <g filter="url(#f)" transform="translate(67 37)">
            <use fill="#FFF" xlink:href="#g"/>
            <rect width="56" height="121" x=".5" y=".5" stroke="#C6C6C6" rx="3.687"/>
            <rect width="46" height="56" x="5.5" y="5.5" stroke="#C6C6C6" rx="1.229"/>
            <use fill="#FFF" xlink:href="#h"/>
            <rect width="10" height="3" x="6.5" y="90.5" stroke="#C6C6C6" rx="1.5"/>
            <use fill="#FFF" xlink:href="#i"/>
            <rect width="10" height="3" x="23.5" y="90.5" stroke="#C6C6C6" rx="1.5"/>
            <use fill="#FFF" xlink:href="#j"/>
            <rect width="10" height="3" x="40.5" y="90.5" stroke="#C6C6C6" rx="1.5"/>
            <use fill="#FFF" xlink:href="#k"/>
            <rect width="10" height="3" x="6.5" y="99.5" stroke="#C6C6C6" rx="1.5"/>
            <use fill="#FFF" xlink:href="#l"/>
            <rect width="10" height="3" x="23.5" y="99.5" stroke="#C6C6C6" rx="1.5"/>
            <use fill="#FFF" xlink:href="#m"/>
            <rect width="10" height="3" x="40.5" y="99.5" stroke="#C6C6C6" rx="1.5"/>
            <g>
                <use fill="#FFF" xlink:href="#n"/>
                <rect width="10" height="3" x="6.5" y="108.5" stroke="#C6C6C6" rx="1.5"/>
            </g>
            <g>
                <use fill="#FFF" xlink:href="#o"/>
                <rect width="10" height="3" x="23.5" y="108.5" stroke="#C6C6C6" rx="1.5"/>
            </g>
            <g>
                <use fill="#FFF" xlink:href="#p"/>
                <rect width="10" height="3" x="40.5" y="108.5" stroke="#C6C6C6" rx="1.5"/>
            </g>
            <g>
                <use fill="#FFF" xlink:href="#q"/>
                <rect width="11" height="4" x="6.5" y="74.5" stroke="#C6C6C6" rx="2"/>
            </g>
            <g>
                <use fill="#FFF" xlink:href="#r"/>
                <rect width="11" height="4" x="39.5" y="74.5" stroke="#C6C6C6" rx="2"/>
            </g>
            <g>
                <use fill="#FFF" xlink:href="#s"/>
                <ellipse cx="28.5" cy="75.502" stroke="#C6C6C6" rx="5" ry="5.002"/>
            </g>
        </g>
    </g>
</svg>
