<svg xmlns="http://www.w3.org/2000/svg" width="25" height="25" viewBox="0 0 25 25">
    <g fill="none" fill-rule="evenodd">
        <path d="M-20-19h66v60h-66z"/>
        <path stroke="#F563B6" d="M.807 3.535l3.551-1.929c.414-.224.842-.062 1.003.38L8.118 9.56c.112.307-.026.731-.301.915l-1.857 1.24a65.44 65.44 0 0 1-2.849-4.081 40.973 40.973 0 0 1-2.304-4.1zM21.297 24.025l1.929-3.551c.224-.414.062-.842-.38-1.003l-7.575-2.757c-.307-.112-.731.026-.915.301l-1.24 1.857a65.44 65.44 0 0 0 4.081 2.849 40.973 40.973 0 0 0 4.1 2.304z"/>
        <path stroke="#F353AE" stroke-linecap="square" d="M.799 3.527s3.359 6.894 8.485 12.02c5.127 5.127 12.021 8.486 12.021 8.486M13.877 1.056s8.047 1.233 9.9 9.9M13.878 5.298s4.465.837 5.656 5.656"/>
    </g>
</svg>
